<mxfile host="app.diagrams.net" modified="2024-01-03T21:12:49.496Z" agent="Mozilla/5.0 (Macintosh; Intel Mac OS X 10.15; rv:121.0) Gecko/20100101 Firefox/121.0" etag="LIM3E54C0GXy0MSbP33Y" version="22.1.16" type="device">
  <diagram id="C5RBs43oDa-KdzZeNtuy" name="Page-1">
    <mxGraphModel dx="1481" dy="806" grid="1" gridSize="10" guides="1" tooltips="1" connect="1" arrows="1" fold="1" page="1" pageScale="1" pageWidth="827" pageHeight="1169" math="0" shadow="0">
      <root>
        <mxCell id="WIyWlLk6GJQsqaUBKTNV-0" />
        <mxCell id="WIyWlLk6GJQsqaUBKTNV-1" parent="WIyWlLk6GJQsqaUBKTNV-0" />
        <mxCell id="WIyWlLk6GJQsqaUBKTNV-2" value="" style="rounded=0;html=1;jettySize=auto;orthogonalLoop=1;fontSize=11;endArrow=block;endFill=0;endSize=8;strokeWidth=1;shadow=0;labelBackgroundColor=none;edgeStyle=orthogonalEdgeStyle;" parent="WIyWlLk6GJQsqaUBKTNV-1" source="WIyWlLk6GJQsqaUBKTNV-3" target="WIyWlLk6GJQsqaUBKTNV-6" edge="1">
          <mxGeometry relative="1" as="geometry" />
        </mxCell>
        <mxCell id="WIyWlLk6GJQsqaUBKTNV-3" value="Start" style="rounded=1;whiteSpace=wrap;html=1;fontSize=12;glass=0;strokeWidth=1;shadow=0;" parent="WIyWlLk6GJQsqaUBKTNV-1" vertex="1">
          <mxGeometry x="160" y="80" width="120" height="40" as="geometry" />
        </mxCell>
        <mxCell id="WIyWlLk6GJQsqaUBKTNV-5" value="No" style="edgeStyle=orthogonalEdgeStyle;rounded=0;html=1;jettySize=auto;orthogonalLoop=1;fontSize=11;endArrow=block;endFill=0;endSize=8;strokeWidth=1;shadow=0;labelBackgroundColor=none;" parent="WIyWlLk6GJQsqaUBKTNV-1" source="WIyWlLk6GJQsqaUBKTNV-6" target="WIyWlLk6GJQsqaUBKTNV-7" edge="1">
          <mxGeometry y="10" relative="1" as="geometry">
            <mxPoint as="offset" />
          </mxGeometry>
        </mxCell>
        <mxCell id="ysT_gEYQFVNsKPNGjzVJ-5" style="edgeStyle=orthogonalEdgeStyle;rounded=0;orthogonalLoop=1;jettySize=auto;html=1;exitX=0.5;exitY=1;exitDx=0;exitDy=0;entryX=0.5;entryY=0;entryDx=0;entryDy=0;" edge="1" parent="WIyWlLk6GJQsqaUBKTNV-1" source="WIyWlLk6GJQsqaUBKTNV-6" target="ysT_gEYQFVNsKPNGjzVJ-0">
          <mxGeometry relative="1" as="geometry" />
        </mxCell>
        <mxCell id="WIyWlLk6GJQsqaUBKTNV-6" value="Do you want to play?" style="rhombus;whiteSpace=wrap;html=1;shadow=0;fontFamily=Helvetica;fontSize=12;align=center;strokeWidth=1;spacing=6;spacingTop=-4;" parent="WIyWlLk6GJQsqaUBKTNV-1" vertex="1">
          <mxGeometry x="170" y="170" width="100" height="80" as="geometry" />
        </mxCell>
        <mxCell id="WIyWlLk6GJQsqaUBKTNV-7" value="exit" style="rounded=1;whiteSpace=wrap;html=1;fontSize=12;glass=0;strokeWidth=1;shadow=0;" parent="WIyWlLk6GJQsqaUBKTNV-1" vertex="1">
          <mxGeometry x="320" y="190" width="120" height="40" as="geometry" />
        </mxCell>
        <mxCell id="ysT_gEYQFVNsKPNGjzVJ-1" style="edgeStyle=orthogonalEdgeStyle;rounded=0;orthogonalLoop=1;jettySize=auto;html=1;exitX=0.5;exitY=1;exitDx=0;exitDy=0;entryX=0.5;entryY=0;entryDx=0;entryDy=0;" edge="1" parent="WIyWlLk6GJQsqaUBKTNV-1" source="ysT_gEYQFVNsKPNGjzVJ-0">
          <mxGeometry relative="1" as="geometry">
            <mxPoint x="220" y="430" as="targetPoint" />
          </mxGeometry>
        </mxCell>
        <mxCell id="ysT_gEYQFVNsKPNGjzVJ-0" value="&lt;div&gt;print blackjack logo&lt;/div&gt;/first hands" style="rounded=1;whiteSpace=wrap;html=1;" vertex="1" parent="WIyWlLk6GJQsqaUBKTNV-1">
          <mxGeometry x="160" y="290" width="120" height="60" as="geometry" />
        </mxCell>
        <mxCell id="ysT_gEYQFVNsKPNGjzVJ-8" value="" style="edgeStyle=orthogonalEdgeStyle;rounded=0;orthogonalLoop=1;jettySize=auto;html=1;" edge="1" parent="WIyWlLk6GJQsqaUBKTNV-1" source="ysT_gEYQFVNsKPNGjzVJ-2" target="ysT_gEYQFVNsKPNGjzVJ-7">
          <mxGeometry relative="1" as="geometry">
            <Array as="points">
              <mxPoint x="220" y="550" />
              <mxPoint x="220" y="550" />
            </Array>
          </mxGeometry>
        </mxCell>
        <mxCell id="ysT_gEYQFVNsKPNGjzVJ-11" value="" style="edgeStyle=orthogonalEdgeStyle;rounded=0;orthogonalLoop=1;jettySize=auto;html=1;" edge="1" parent="WIyWlLk6GJQsqaUBKTNV-1" source="ysT_gEYQFVNsKPNGjzVJ-2">
          <mxGeometry relative="1" as="geometry">
            <mxPoint x="390" y="455" as="targetPoint" />
          </mxGeometry>
        </mxCell>
        <mxCell id="ysT_gEYQFVNsKPNGjzVJ-2" value="Type y to get another card or n to pass" style="rhombus;whiteSpace=wrap;html=1;" vertex="1" parent="WIyWlLk6GJQsqaUBKTNV-1">
          <mxGeometry x="145" y="420" width="150" height="70" as="geometry" />
        </mxCell>
        <mxCell id="ysT_gEYQFVNsKPNGjzVJ-6" value="yes" style="text;html=1;align=center;verticalAlign=middle;resizable=0;points=[];autosize=1;strokeColor=none;fillColor=none;" vertex="1" parent="WIyWlLk6GJQsqaUBKTNV-1">
          <mxGeometry x="180" y="238" width="40" height="30" as="geometry" />
        </mxCell>
        <mxCell id="ysT_gEYQFVNsKPNGjzVJ-13" style="edgeStyle=orthogonalEdgeStyle;rounded=0;orthogonalLoop=1;jettySize=auto;html=1;entryX=0;entryY=0.5;entryDx=0;entryDy=0;exitX=0;exitY=0.5;exitDx=0;exitDy=0;" edge="1" parent="WIyWlLk6GJQsqaUBKTNV-1" source="ysT_gEYQFVNsKPNGjzVJ-7" target="ysT_gEYQFVNsKPNGjzVJ-2">
          <mxGeometry relative="1" as="geometry">
            <Array as="points">
              <mxPoint x="60" y="605" />
              <mxPoint x="60" y="455" />
            </Array>
          </mxGeometry>
        </mxCell>
        <mxCell id="ysT_gEYQFVNsKPNGjzVJ-34" value="" style="edgeStyle=orthogonalEdgeStyle;rounded=0;orthogonalLoop=1;jettySize=auto;html=1;" edge="1" parent="WIyWlLk6GJQsqaUBKTNV-1" source="ysT_gEYQFVNsKPNGjzVJ-7" target="ysT_gEYQFVNsKPNGjzVJ-33">
          <mxGeometry relative="1" as="geometry" />
        </mxCell>
        <mxCell id="ysT_gEYQFVNsKPNGjzVJ-7" value="Add random card to my score. check if &amp;lt; 21?" style="rhombus;whiteSpace=wrap;html=1;" vertex="1" parent="WIyWlLk6GJQsqaUBKTNV-1">
          <mxGeometry x="150" y="570" width="145" height="70" as="geometry" />
        </mxCell>
        <mxCell id="ysT_gEYQFVNsKPNGjzVJ-9" value="yes" style="text;html=1;align=center;verticalAlign=middle;resizable=0;points=[];autosize=1;strokeColor=none;fillColor=none;" vertex="1" parent="WIyWlLk6GJQsqaUBKTNV-1">
          <mxGeometry x="170" y="488" width="40" height="30" as="geometry" />
        </mxCell>
        <mxCell id="ysT_gEYQFVNsKPNGjzVJ-12" value="No" style="text;html=1;align=center;verticalAlign=middle;resizable=0;points=[];autosize=1;strokeColor=none;fillColor=none;" vertex="1" parent="WIyWlLk6GJQsqaUBKTNV-1">
          <mxGeometry x="320" y="418" width="40" height="30" as="geometry" />
        </mxCell>
        <mxCell id="ysT_gEYQFVNsKPNGjzVJ-14" value="Yes" style="text;html=1;align=center;verticalAlign=middle;resizable=0;points=[];autosize=1;strokeColor=none;fillColor=none;" vertex="1" parent="WIyWlLk6GJQsqaUBKTNV-1">
          <mxGeometry x="100" y="568" width="40" height="30" as="geometry" />
        </mxCell>
        <mxCell id="ysT_gEYQFVNsKPNGjzVJ-17" value="" style="edgeStyle=orthogonalEdgeStyle;rounded=0;orthogonalLoop=1;jettySize=auto;html=1;" edge="1" parent="WIyWlLk6GJQsqaUBKTNV-1" source="ysT_gEYQFVNsKPNGjzVJ-15" target="ysT_gEYQFVNsKPNGjzVJ-16">
          <mxGeometry relative="1" as="geometry" />
        </mxCell>
        <mxCell id="ysT_gEYQFVNsKPNGjzVJ-20" value="" style="edgeStyle=orthogonalEdgeStyle;rounded=0;orthogonalLoop=1;jettySize=auto;html=1;" edge="1" parent="WIyWlLk6GJQsqaUBKTNV-1" source="ysT_gEYQFVNsKPNGjzVJ-15" target="ysT_gEYQFVNsKPNGjzVJ-19">
          <mxGeometry relative="1" as="geometry" />
        </mxCell>
        <mxCell id="ysT_gEYQFVNsKPNGjzVJ-15" value="check if draw" style="rhombus;whiteSpace=wrap;html=1;" vertex="1" parent="WIyWlLk6GJQsqaUBKTNV-1">
          <mxGeometry x="390" y="415" width="80" height="80" as="geometry" />
        </mxCell>
        <mxCell id="ysT_gEYQFVNsKPNGjzVJ-16" value="You Drew with the dealer" style="whiteSpace=wrap;html=1;" vertex="1" parent="WIyWlLk6GJQsqaUBKTNV-1">
          <mxGeometry x="370" y="585" width="120" height="60" as="geometry" />
        </mxCell>
        <mxCell id="ysT_gEYQFVNsKPNGjzVJ-18" value="yes" style="text;html=1;align=center;verticalAlign=middle;resizable=0;points=[];autosize=1;strokeColor=none;fillColor=none;" vertex="1" parent="WIyWlLk6GJQsqaUBKTNV-1">
          <mxGeometry x="390" y="518" width="40" height="30" as="geometry" />
        </mxCell>
        <mxCell id="ysT_gEYQFVNsKPNGjzVJ-26" value="" style="edgeStyle=orthogonalEdgeStyle;rounded=0;orthogonalLoop=1;jettySize=auto;html=1;" edge="1" parent="WIyWlLk6GJQsqaUBKTNV-1" source="ysT_gEYQFVNsKPNGjzVJ-19" target="ysT_gEYQFVNsKPNGjzVJ-25">
          <mxGeometry relative="1" as="geometry" />
        </mxCell>
        <mxCell id="ysT_gEYQFVNsKPNGjzVJ-19" value="Get Dealer&#39;s final hand" style="whiteSpace=wrap;html=1;" vertex="1" parent="WIyWlLk6GJQsqaUBKTNV-1">
          <mxGeometry x="530" y="425" width="120" height="60" as="geometry" />
        </mxCell>
        <mxCell id="ysT_gEYQFVNsKPNGjzVJ-24" value="" style="edgeStyle=orthogonalEdgeStyle;rounded=0;orthogonalLoop=1;jettySize=auto;html=1;" edge="1" parent="WIyWlLk6GJQsqaUBKTNV-1" source="ysT_gEYQFVNsKPNGjzVJ-21" target="ysT_gEYQFVNsKPNGjzVJ-23">
          <mxGeometry relative="1" as="geometry" />
        </mxCell>
        <mxCell id="ysT_gEYQFVNsKPNGjzVJ-21" value="Subtract hands from 21" style="whiteSpace=wrap;html=1;" vertex="1" parent="WIyWlLk6GJQsqaUBKTNV-1">
          <mxGeometry x="840" y="425" width="120" height="60" as="geometry" />
        </mxCell>
        <mxCell id="ysT_gEYQFVNsKPNGjzVJ-23" value="the hand that is less of a difference wins" style="whiteSpace=wrap;html=1;" vertex="1" parent="WIyWlLk6GJQsqaUBKTNV-1">
          <mxGeometry x="1040" y="425" width="120" height="60" as="geometry" />
        </mxCell>
        <mxCell id="ysT_gEYQFVNsKPNGjzVJ-28" value="" style="edgeStyle=orthogonalEdgeStyle;rounded=0;orthogonalLoop=1;jettySize=auto;html=1;" edge="1" parent="WIyWlLk6GJQsqaUBKTNV-1" source="ysT_gEYQFVNsKPNGjzVJ-25" target="ysT_gEYQFVNsKPNGjzVJ-27">
          <mxGeometry relative="1" as="geometry" />
        </mxCell>
        <mxCell id="ysT_gEYQFVNsKPNGjzVJ-30" style="edgeStyle=orthogonalEdgeStyle;rounded=0;orthogonalLoop=1;jettySize=auto;html=1;exitX=1;exitY=0.5;exitDx=0;exitDy=0;entryX=0;entryY=0.5;entryDx=0;entryDy=0;" edge="1" parent="WIyWlLk6GJQsqaUBKTNV-1" source="ysT_gEYQFVNsKPNGjzVJ-25" target="ysT_gEYQFVNsKPNGjzVJ-21">
          <mxGeometry relative="1" as="geometry" />
        </mxCell>
        <mxCell id="ysT_gEYQFVNsKPNGjzVJ-25" value="is dealer&#39;s hand &amp;lt; 17" style="rhombus;whiteSpace=wrap;html=1;" vertex="1" parent="WIyWlLk6GJQsqaUBKTNV-1">
          <mxGeometry x="720" y="415" width="80" height="80" as="geometry" />
        </mxCell>
        <mxCell id="ysT_gEYQFVNsKPNGjzVJ-29" style="edgeStyle=orthogonalEdgeStyle;rounded=0;orthogonalLoop=1;jettySize=auto;html=1;entryX=0.5;entryY=1;entryDx=0;entryDy=0;" edge="1" parent="WIyWlLk6GJQsqaUBKTNV-1" source="ysT_gEYQFVNsKPNGjzVJ-27" target="ysT_gEYQFVNsKPNGjzVJ-19">
          <mxGeometry relative="1" as="geometry" />
        </mxCell>
        <mxCell id="ysT_gEYQFVNsKPNGjzVJ-27" value="Add random card to dealer&#39;s hand" style="whiteSpace=wrap;html=1;" vertex="1" parent="WIyWlLk6GJQsqaUBKTNV-1">
          <mxGeometry x="700" y="585" width="120" height="60" as="geometry" />
        </mxCell>
        <mxCell id="ysT_gEYQFVNsKPNGjzVJ-31" value="yes" style="text;html=1;align=center;verticalAlign=middle;resizable=0;points=[];autosize=1;strokeColor=none;fillColor=none;" vertex="1" parent="WIyWlLk6GJQsqaUBKTNV-1">
          <mxGeometry x="710" y="508" width="40" height="30" as="geometry" />
        </mxCell>
        <mxCell id="ysT_gEYQFVNsKPNGjzVJ-32" value="No" style="text;html=1;align=center;verticalAlign=middle;resizable=0;points=[];autosize=1;strokeColor=none;fillColor=none;" vertex="1" parent="WIyWlLk6GJQsqaUBKTNV-1">
          <mxGeometry x="790" y="408" width="40" height="30" as="geometry" />
        </mxCell>
        <mxCell id="ysT_gEYQFVNsKPNGjzVJ-33" value="You lose" style="whiteSpace=wrap;html=1;" vertex="1" parent="WIyWlLk6GJQsqaUBKTNV-1">
          <mxGeometry x="162.5" y="725" width="120" height="60" as="geometry" />
        </mxCell>
        <mxCell id="ysT_gEYQFVNsKPNGjzVJ-35" value="No" style="text;html=1;align=center;verticalAlign=middle;resizable=0;points=[];autosize=1;strokeColor=none;fillColor=none;" vertex="1" parent="WIyWlLk6GJQsqaUBKTNV-1">
          <mxGeometry x="220" y="668" width="40" height="30" as="geometry" />
        </mxCell>
      </root>
    </mxGraphModel>
  </diagram>
</mxfile>
